<?xml version="1.0" encoding="UTF-8" standalone="no"?>
<svg
   viewBox="0 0 483.78 329.86"
   version="1.1"
   id="svg12"
   sodipodi:docname="unimy-primary-logo-rubyred-svg - Copy.svg"
   inkscape:version="1.1.1 (3bf5ae0d25, 2021-09-20)"
   xmlns:inkscape="http://www.inkscape.org/namespaces/inkscape"
   xmlns:sodipodi="http://sodipodi.sourceforge.net/DTD/sodipodi-0.dtd"
   xmlns="http://www.w3.org/2000/svg"
   xmlns:svg="http://www.w3.org/2000/svg">
  <sodipodi:namedview
     id="namedview14"
     pagecolor="#ffffff"
     bordercolor="#666666"
     borderopacity="1.0"
     inkscape:pageshadow="2"
     inkscape:pageopacity="0.0"
     inkscape:pagecheckerboard="0"
     showgrid="false"
     inkscape:zoom="1.5464033"
     inkscape:cx="224.71499"
     inkscape:cy="148.40889"
     inkscape:window-width="1600"
     inkscape:window-height="829"
     inkscape:window-x="201"
     inkscape:window-y="-8"
     inkscape:window-maximized="1"
     inkscape:current-layer="layer1" />
  <defs
     id="defs4">
    <style
       id="style2">.cls-1{fill:#c41f48;}.cls-2{fill:#fff;}</style>
  </defs>
  <g
     inkscape:groupmode="layer"
     id="layer3"
     inkscape:label="backround-white" />
  <g
     id="Layer_2"
     data-name="Layer 2" />
  <g
     inkscape:groupmode="layer"
     id="layer1"
     inkscape:label="logo"
     style="display:inline">
    <g
       id="Layer_1-2"
       data-name="Layer 1"
       transform="matrix(0.98925131,0,0,0.9848421,3,3)">
      <rect
         class="cls-1"
         width="483.78"
         height="329.85999"
         id="rect6"
         x="0"
         y="0" />
      <path
         class="cls-2"
         d="m 53.5,122.15 c 6.39,6.56 15.82,9.8 28.17,9.79 12.35,-0.01 21.76,-3.23 28.1,-9.79 6.34,-6.56 9.48,-15.38 9.48,-26.42 V 44 h -16.87 v 52 c 0,6.78 -1.89,11.84 -5.61,15.33 -3.72,3.49 -8.74,5.25 -15.1,5.26 -6.36,0.01 -11.49,-1.77 -15.23,-5.26 C 62.7,107.84 60.84,102.78 60.83,96 V 44 H 44 v 51.73 c 0,11.04 3.13,19.88 9.5,26.42 z m 99.74,-49.61 39.8,59.4 h 15.75 V 44 h -16.87 v 59.29 L 152.11,44 h -15.74 v 88 h 16.87 z M 243.4,44 h -16.87 v 88 h 16.87 z m 33.74,33.49 25,54.47 h 8.15 l 25,-54.47 v 54.47 h 16 V 44 H 334.91 L 306.18,106.87 277.44,44 h -16.3 v 88 h 16 z m 114.59,54.47 h 16.13 V 98.49 L 440.46,44 H 422.54 L 399.86,82.1 377.8,44 h -18 l 32,54.51 z m 92,22.82 H 44 v -1.64 H 483.78 Z M 44,175.91 v 16.53 a 9.79,9.79 0 0 0 0.79,4 8.5,8.5 0 0 0 2.2,3 9.74,9.74 0 0 0 3.32,1.87 13.78,13.78 0 0 0 8.3,0 9.69,9.69 0 0 0 3.33,-1.87 8.5,8.5 0 0 0 2.2,-3 10,10 0 0 0 0.78,-4 v -16.53 h -4 v 16.14 a 6.39,6.39 0 0 1 -1.58,4.5 6.16,6.16 0 0 1 -4.8,1.74 6.12,6.12 0 0 1 -4.78,-1.74 6.52,6.52 0 0 1 -1.56,-4.5 V 175.91 Z M 88.56,188 v 3 c 0,0.94 0,1.85 0.07,2.75 -0.35,-0.42 -0.71,-0.85 -1.11,-1.31 -0.4,-0.46 -0.93,-1.08 -1.4,-1.61 l -1.39,-1.56 c -0.45,-0.53 -0.86,-1 -1.23,-1.38 l -10.89,-12 h -2.86 v 25.61 h 4.18 v -15.84 c 0,-1 0,-2 -0.07,-3.06 0.82,1 1.71,2 2.66,3.11 0.95,1.11 2,2.31 3,3.34 l 11.88,13 h 1.35 v -26.14 h -4.19 z m 13.82,-12.13 H 98.2 v 25.61 h 4.18 z m 14.69,26 h 0.1 v -0.09 l 10.12,-25.87 h -4 l -4.71,12.15 c -0.37,0.93 -0.73,1.91 -1.08,2.93 -0.35,1.02 -0.62,1.86 -0.93,2.82 -0.31,-1 -0.62,-1.95 -0.95,-2.88 -0.33,-0.93 -0.71,-2 -1.05,-2.87 l -4.72,-12.15 h -4.36 l 10.19,26 z m 26.84,-22.37 v -3.59 h -14 v 25.61 h 15.39 v -3.59 h -11.19 v -7.48 h 8.22 v -3.59 h -8.22 v -7.36 z m 16,10.22 8.71,11.8 h -4.84 l -8,-11.11 h -3.35 v 11.11 h -4.1 v -25.61 h 8.16 a 8.8,8.8 0 0 1 2.75,0.45 7.62,7.62 0 0 1 2.48,1.33 6.87,6.87 0 0 1 1.83,2.27 7,7 0 0 1 0.71,3.2 6.54,6.54 0 0 1 -1.32,4.23 7.87,7.87 0 0 1 -3,2.33 m -7.41,-2.86 h 3.38 a 6.09,6.09 0 0 0 1.59,-0.21 3.72,3.72 0 0 0 1.35,-0.67 3.15,3.15 0 0 0 0.94,-1.16 3.84,3.84 0 0 0 0.34,-1.66 3.68,3.68 0 0 0 -0.34,-1.64 3.17,3.17 0 0 0 -0.94,-1.14 3.88,3.88 0 0 0 -1.36,-0.69 5.25,5.25 0 0 0 -1.58,-0.23 h -3.38 z m 30.88,2.14 a 10.42,10.42 0 0 0 -2.36,-1.75 17,17 0 0 0 -3,-1.32 c -2.7,-0.92 -4,-2.19 -4,-3.79 a 3,3 0 0 1 1.06,-2.32 4.18,4.18 0 0 1 2.94,-1 8,8 0 0 1 2.84,0.49 9.31,9.31 0 0 1 2,0.95 l 0.17,0.13 0.83,-3.46 -0.08,-0.06 a 7.74,7.74 0 0 0 -2.18,-1 11.43,11.43 0 0 0 -3.41,-0.47 10.07,10.07 0 0 0 -3.58,0.58 7.4,7.4 0 0 0 -2.54,1.55 6.58,6.58 0 0 0 -1.52,2.26 7,7 0 0 0 -0.5,2.62 6.54,6.54 0 0 0 1.78,4.6 12,12 0 0 0 5.2,3 7.7,7.7 0 0 1 3.28,1.82 3.74,3.74 0 0 1 1,2.68 3.4,3.4 0 0 1 -1.21,2.74 4.92,4.92 0 0 1 -3.3,1 11.56,11.56 0 0 1 -3.87,-0.65 15.19,15.19 0 0 1 -3.65,-1.9 l -0.29,-0.21 0.95,4.62 h 0.05 a 10.29,10.29 0 0 0 2.78,1.21 13.47,13.47 0 0 0 3.85,0.52 12,12 0 0 0 3.82,-0.56 7.81,7.81 0 0 0 2.78,-1.6 6.63,6.63 0 0 0 1.71,-2.45 8.57,8.57 0 0 0 0.56,-3.15 7.51,7.51 0 0 0 -0.54,-2.91 7.16,7.16 0 0 0 -1.54,-2.29 m 10.69,-13.08 h -4.18 v 25.61 h 4.18 z m 11.18,25.61 h 4.17 v -22 h 8.14 v -3.59 h -20.48 v 3.59 h 8.13 z m 31.89,-25.61 -5.2,7.32 -1.19,1.74 c -0.41,0.62 -0.8,1.18 -1.15,1.71 l -1.11,-1.69 c -0.42,-0.64 -0.82,-1.23 -1.19,-1.76 l -5.12,-7.21 h -4.56 l 9.81,13.84 v 11.77 h 4.06 v -11.77 l 9.86,-13.84 z m 39.93,0 -6.73,13.2 -1.65,3.31 c -0.53,1.07 -1,2.06 -1.36,3 -0.4,-0.93 -0.87,-1.93 -1.41,-3 -0.54,-1.07 -1.14,-2.27 -1.67,-3.28 l -6.79,-13.09 h -2.6 l -2.21,25.61 h 3.71 l 1,-11.56 c 0.05,-0.77 0.12,-1.67 0.2,-2.68 0.08,-1.01 0.13,-1.74 0.17,-2.59 0.4,0.82 0.81,1.68 1.24,2.6 0.43,0.92 1,2 1.41,2.84 l 6,11.58 H 268 l 6,-11.61 c 0.42,-0.82 0.91,-1.78 1.45,-2.88 0.47,-0.95 0.87,-1.81 1.23,-2.62 0.05,0.8 0.1,1.63 0.16,2.51 0.07,1 0.14,2 0.22,2.82 l 1,11.56 H 282 l -2.28,-25.61 z m 11.18,25.61 h -4.09 l 10.92,-26 h 1.58 l 10.91,26 h -4.2 L 300.66,195 H 291 Z m 6.58,-15.88 -2.42,6 h 6.79 l -2.41,-6 v 0 a 13.9,13.9 0 0 1 -0.56,-1.47 c -0.15,-0.45 -0.29,-0.88 -0.42,-1.32 -0.12,0.44 -0.24,0.87 -0.4,1.32 -0.16,0.45 -0.39,1.05 -0.58,1.47 z m 15.75,-9.73 v 25.61 h 15.33 v -3.59 h -11.18 v -22 z m 28.81,-0.35 10.91,26 h -4.21 L 343.39,195 h -9.65 l -2.74,6.52 h -4.09 l 10.92,-26 h 1.58 z m -1.83,10.08 -2.42,6 h 6.8 l -2.42,-6 v 0 q -0.29,-0.63 -0.57,-1.47 c -0.14,-0.45 -0.28,-0.88 -0.41,-1.31 -0.12,0.43 -0.24,0.86 -0.4,1.31 -0.16,0.45 -0.39,1.05 -0.58,1.47 z m 23.86,15.88 v -11.66 l 9.85,-13.84 H 367 l -5.13,7.21 c -0.34,0.5 -0.74,1.08 -1.18,1.74 -0.44,0.66 -0.8,1.18 -1.15,1.71 -0.35,-0.52 -0.72,-1.08 -1.11,-1.69 -0.39,-0.61 -0.82,-1.23 -1.19,-1.76 l -5.13,-7.21 h -4.56 l 9.82,13.84 v 11.77 z m 10.76,-1.3 a 10.15,10.15 0 0 0 2.78,1.21 13.47,13.47 0 0 0 3.85,0.52 11.94,11.94 0 0 0 3.81,-0.56 7.86,7.86 0 0 0 2.79,-1.6 6.6,6.6 0 0 0 1.7,-2.45 8.37,8.37 0 0 0 0.57,-3.15 7.51,7.51 0 0 0 -0.54,-2.91 7.16,7.16 0 0 0 -1.54,-2.29 10.42,10.42 0 0 0 -2.36,-1.75 17.29,17.29 0 0 0 -3,-1.32 c -2.7,-0.92 -4,-2.19 -4,-3.79 a 3,3 0 0 1 1.06,-2.32 4.16,4.16 0 0 1 2.94,-1 8,8 0 0 1 2.84,0.49 9.55,9.55 0 0 1 2,0.95 l 0.17,0.13 0.83,-3.46 -0.08,-0.06 a 7.88,7.88 0 0 0 -2.18,-1 11.49,11.49 0 0 0 -3.42,-0.47 10,10 0 0 0 -3.57,0.58 7.22,7.22 0 0 0 -2.54,1.55 6.44,6.44 0 0 0 -1.52,2.26 7,7 0 0 0 -0.51,2.62 6.59,6.59 0 0 0 1.68,4.71 12,12 0 0 0 5.2,3 7.64,7.64 0 0 1 3.28,1.82 3.71,3.71 0 0 1 1,2.68 3.4,3.4 0 0 1 -1.21,2.74 5,5 0 0 1 -3.31,1 11.54,11.54 0 0 1 -3.86,-0.65 15,15 0 0 1 -3.65,-1.9 l -0.3,-0.21 1,4.62 z m 19.93,1.3 h 4.18 v -25.5 h -4.18 z m 20.24,-26 10.91,26 h -4.2 L 416.35,195 h -9.65 l -2.7,6.52 h -4.08 l 10.91,-26 h 1.58 z m -1.83,10.08 -2.42,6 h 6.79 l -2.42,-6 v 0 c -0.18,-0.42 -0.37,-0.91 -0.55,-1.47 -0.18,-0.56 -0.29,-0.88 -0.42,-1.31 -0.12,0.43 -0.24,0.86 -0.4,1.31 -0.16,0.45 -0.39,1.05 -0.58,1.48 M 69.91,227.2 a 14,14 0 0 1 0,11.16 13.06,13.06 0 0 1 -3.07,4.17 13.68,13.68 0 0 1 -4.33,2.62 13.88,13.88 0 0 1 -10,0 13.64,13.64 0 0 1 -4.32,-2.62 12.94,12.94 0 0 1 -3.08,-4.17 14,14 0 0 1 0,-11.16 12.94,12.94 0 0 1 3.09,-4.2 14.05,14.05 0 0 1 18.64,0 13.06,13.06 0 0 1 3.07,4.17 m -9,14.61 a 9.56,9.56 0 0 0 3,-1.88 9.3,9.3 0 0 0 2.16,-3 10.76,10.76 0 0 0 0,-8.24 9.28,9.28 0 0 0 -2.16,-3 9.56,9.56 0 0 0 -3,-1.88 9.39,9.39 0 0 0 -9.77,1.88 9.3,9.3 0 0 0 -2.15,3 10.74,10.74 0 0 0 0,8.23 9.22,9.22 0 0 0 2.15,3.05 9.32,9.32 0 0 0 9.77,1.88 m 28.4,-18.23 V 220 H 75 v 25.6 h 4.18 V 234.53 H 87.7 V 231 h -8.57 v -7.37 z M 118.44,242 a 16.54,16.54 0 0 1 -4,0.43 11.69,11.69 0 0 1 -3.69,-0.6 10.19,10.19 0 0 1 -3.22,-1.8 8.88,8.88 0 0 1 -2.29,-3 11,11 0 0 1 0,-8.52 9,9 0 0 1 2.31,-3 10.13,10.13 0 0 1 3.23,-1.8 11.44,11.44 0 0 1 3.64,-0.61 11.78,11.78 0 0 1 1.9,0.16 17.3,17.3 0 0 1 1.75,0.4 10.34,10.34 0 0 1 1.49,0.53 10.82,10.82 0 0 1 1.13,0.56 l 0.18,0.1 v -0.19 l 0.69,-3.44 -0.09,-0.05 a 12.65,12.65 0 0 0 -3,-1.19 17.88,17.88 0 0 0 -4.51,-0.5 14.87,14.87 0 0 0 -4.85,0.84 14.11,14.11 0 0 0 -4.43,2.51 13.19,13.19 0 0 0 -3.25,4.15 14.08,14.08 0 0 0 0,11.6 13,13 0 0 0 3.23,4.15 13.84,13.84 0 0 0 4.46,2.51 15.25,15.25 0 0 0 4.86,0.84 21.21,21.21 0 0 0 4,-0.3 9.93,9.93 0 0 0 2.72,-0.95 h 0.06 l 0.88,-4.09 -0.29,0.18 a 10.92,10.92 0 0 1 -2.92,1.13 m 31,-14.82 a 13.16,13.16 0 0 1 -3.08,15.33 13.46,13.46 0 0 1 -4.33,2.62 14.05,14.05 0 0 1 -14.31,-2.62 13.19,13.19 0 0 1 0,-19.5 14,14 0 0 1 14.29,-2.65 13.64,13.64 0 0 1 4.33,2.62 12.94,12.94 0 0 1 3.08,4.17 m -9,14.61 a 9.56,9.56 0 0 0 3,-1.88 9.18,9.18 0 0 0 2.17,-3 10.76,10.76 0 0 0 0,-8.24 9.31,9.31 0 0 0 -2.17,-3 9.56,9.56 0 0 0 -3,-1.88 9.32,9.32 0 0 0 -3.36,-0.65 9.49,9.49 0 0 0 -3.4,0.65 9.3,9.3 0 0 0 -5.15,4.9 10.74,10.74 0 0 0 0,8.23 9.22,9.22 0 0 0 5.15,4.93 9.48,9.48 0 0 0 3.4,0.64 9.31,9.31 0 0 0 3.36,-0.64 m 21.39,-7.59 6,11.58 h 1.61 l 5.91,-11.58 c 0.42,-0.82 0.9,-1.79 1.45,-2.89 0.47,-0.94 0.88,-1.81 1.24,-2.61 0,0.8 0.09,1.63 0.15,2.5 0.06,1 0.14,2 0.22,2.82 l 1,11.56 h 3.94 L 181,220 h -2.6 l -6.71,13.09 -1.65,3.32 c -0.53,1.07 -1,2.06 -1.36,3 q -0.6,-1.38 -1.41,-3 c -0.59,-1.17 -1.14,-2.26 -1.67,-3.27 L 158.85,220 h -2.6 l -2.2,25.6 h 3.7 l 1,-11.56 v 0 c 0.06,-0.77 0.12,-1.66 0.2,-2.67 0.08,-1.01 0.12,-1.75 0.17,-2.6 l 1.24,2.6 q 0.73,1.57 1.41,2.85 M 187.34,220 h 7.77 a 9,9 0 0 1 2.74,0.44 7.64,7.64 0 0 1 2.48,1.34 6.8,6.8 0 0 1 1.83,2.26 7,7 0 0 1 0.71,3.21 6.94,6.94 0 0 1 -0.71,3.19 6.65,6.65 0 0 1 -1.83,2.27 7.64,7.64 0 0 1 -2.48,1.34 9,9 0 0 1 -2.74,0.44 h -3.67 v 11.11 h -4.1 z m 4.14,3.54 V 231 h 3 a 5.65,5.65 0 0 0 1.59,-0.22 4,4 0 0 0 1.36,-0.66 3.32,3.32 0 0 0 0.93,-1.16 3.73,3.73 0 0 0 0.34,-1.66 3.62,3.62 0 0 0 -0.34,-1.65 3.44,3.44 0 0 0 -0.93,-1.14 4.41,4.41 0 0 0 -1.37,-0.69 5.59,5.59 0 0 0 -1.58,-0.23 z M 226.83,220 h -4 v 16.13 a 6.48,6.48 0 0 1 -1.58,4.51 7.5,7.5 0 0 1 -9.58,0 6.51,6.51 0 0 1 -1.56,-4.51 V 220 h -4.18 v 16.53 a 9.71,9.71 0 0 0 0.79,4 8.3,8.3 0 0 0 2.2,3 9.57,9.57 0 0 0 3.32,1.87 13.57,13.57 0 0 0 8.3,0 9.4,9.4 0 0 0 3.32,-1.87 8.3,8.3 0 0 0 2.2,-3 9.71,9.71 0 0 0 0.79,-4 z m 2.49,3.58 h 8.13 v 22 h 4.18 v -22 h 8.13 V 220 h -20.44 z m 22.89,22 h 15.37 V 242 h -11.19 v -7.49 h 8.21 V 231 h -8.21 v -7.37 h 9.8 V 220 h -14 z M 284,221.78 a 6.78,6.78 0 0 1 2.53,5.47 6.52,6.52 0 0 1 -1.32,4.23 8,8 0 0 1 -3.05,2.33 l 8.72,11.79 h -4.84 l -8,-11.11 h -3.35 v 11.11 h -4.1 V 220 h 8.16 a 9,9 0 0 1 2.74,0.44 7.8,7.8 0 0 1 2.49,1.34 m -9.22,9.22 h 3.39 a 5.63,5.63 0 0 0 1.58,-0.22 3.92,3.92 0 0 0 1.36,-0.66 3.32,3.32 0 0 0 0.93,-1.16 3.73,3.73 0 0 0 0.34,-1.66 3.62,3.62 0 0 0 -0.34,-1.65 3.44,3.44 0 0 0 -0.93,-1.14 4.36,4.36 0 0 0 -1.36,-0.69 5.64,5.64 0 0 0 -1.58,-0.23 h -3.39 z m 40.05,2.13 a 10.42,10.42 0 0 0 -2.36,-1.75 18,18 0 0 0 -3,-1.33 c -2.71,-0.92 -4,-2.19 -4,-3.79 a 3.1,3.1 0 0 1 1.07,-2.31 4.14,4.14 0 0 1 2.95,-1 8,8 0 0 1 2.83,0.49 8.63,8.63 0 0 1 2,0.95 l 0.17,0.12 0.83,-3.45 -0.08,-0.06 a 7.74,7.74 0 0 0 -2.18,-1 11.1,11.1 0 0 0 -3.41,-0.48 10.07,10.07 0 0 0 -3.58,0.58 7.42,7.42 0 0 0 -2.54,1.56 6.49,6.49 0 0 0 -1.52,2.26 7,7 0 0 0 -0.5,2.61 6.5,6.5 0 0 0 1.77,4.6 12.09,12.09 0 0 0 5.21,3 7.87,7.87 0 0 1 3.23,1.87 3.72,3.72 0 0 1 1,2.68 3.41,3.41 0 0 1 -1.21,2.75 5,5 0 0 1 -3.31,1 11.54,11.54 0 0 1 -3.86,-0.64 15.61,15.61 0 0 1 -3.65,-1.91 l -0.3,-0.21 1,4.62 h 0.05 a 10.15,10.15 0 0 0 2.78,1.21 13.84,13.84 0 0 0 3.8,0.5 11.76,11.76 0 0 0 3.82,-0.57 7.73,7.73 0 0 0 2.78,-1.59 6.58,6.58 0 0 0 1.71,-2.46 8.32,8.32 0 0 0 0.56,-3.14 7.56,7.56 0 0 0 -0.54,-2.92 7.12,7.12 0 0 0 -1.54,-2.28 m 22.89,8.96 a 16.59,16.59 0 0 1 -4,0.43 11.53,11.53 0 0 1 -3.68,-0.6 10,10 0 0 1 -3.23,-1.8 8.88,8.88 0 0 1 -2.29,-3 10,10 0 0 1 -0.85,-4.24 9.76,9.76 0 0 1 0.87,-4.28 9,9 0 0 1 2.31,-3 10.08,10.08 0 0 1 3.22,-1.8 11.55,11.55 0 0 1 3.65,-0.61 11.88,11.88 0 0 1 1.9,0.16 17.3,17.3 0 0 1 1.75,0.4 12,12 0 0 1 2.62,1.09 l 0.18,0.1 v -0.19 l 0.69,-3.44 -0.09,-0.05 a 12.58,12.58 0 0 0 -3,-1.19 17.69,17.69 0 0 0 -4.5,-0.5 14.77,14.77 0 0 0 -4.84,0.84 14.15,14.15 0 0 0 -4.44,2.51 12.88,12.88 0 0 0 -3.24,4.15 12.63,12.63 0 0 0 -1.27,5.82 12.48,12.48 0 0 0 4.48,9.93 13.75,13.75 0 0 0 4.44,2.51 15.31,15.31 0 0 0 4.87,0.84 21.21,21.21 0 0 0 4,-0.3 9.75,9.75 0 0 0 2.71,-0.95 h 0.07 l 0.87,-4.09 -0.28,0.18 a 11.05,11.05 0 0 1 -2.92,1.13 m 7.17,3.58 H 349 V 220 h -4.18 z m 13.78,-11.07 h 8.21 V 231 h -8.21 v -7.37 h 9.8 V 220 h -14 v 25.6 H 369.8 V 242 h -11.17 z m 33.08,-2.4 v 2.93 c 0,0.94 0,1.85 0.07,2.74 l -1.1,-1.3 c -0.47,-0.55 -0.94,-1.08 -1.41,-1.61 -0.47,-0.53 -0.94,-1.06 -1.39,-1.57 -0.45,-0.51 -0.86,-1 -1.23,-1.37 L 375.76,220 h -2.86 v 25.6 h 4.18 v -15.85 c 0,-1 0,-2 -0.07,-3.06 0.82,1 1.7,2 2.66,3.11 0.96,1.11 2,2.3 3,3.34 l 11.87,13 h 1.36 V 220 h -4.17 z M 418,242 a 16.54,16.54 0 0 1 -4,0.43 11.64,11.64 0 0 1 -3.69,-0.6 10.08,10.08 0 0 1 -3.22,-1.8 8.88,8.88 0 0 1 -2.29,-3 11,11 0 0 1 0,-8.52 9,9 0 0 1 2.31,-3 10.19,10.19 0 0 1 3.22,-1.8 11.55,11.55 0 0 1 3.65,-0.61 11.88,11.88 0 0 1 1.9,0.16 16.7,16.7 0 0 1 1.75,0.4 10.34,10.34 0 0 1 1.49,0.53 10.82,10.82 0 0 1 1.13,0.56 l 0.18,0.1 v -0.19 l 0.69,-3.44 -0.09,-0.05 a 12.58,12.58 0 0 0 -3,-1.19 17.69,17.69 0 0 0 -4.5,-0.5 14.87,14.87 0 0 0 -4.85,0.84 14.11,14.11 0 0 0 -4.43,2.51 12.88,12.88 0 0 0 -3.25,4.17 12.63,12.63 0 0 0 -1.27,5.82 12.83,12.83 0 0 0 1.24,5.78 13,13 0 0 0 3.23,4.15 13.84,13.84 0 0 0 4.46,2.51 15.2,15.2 0 0 0 4.86,0.84 21.21,21.21 0 0 0 4,-0.3 9.93,9.93 0 0 0 2.72,-0.95 h 0.05 l 0.88,-4.09 -0.28,0.18 A 10.92,10.92 0 0 1 418,242 m 10.76,-7.49 H 437 V 231 h -8.21 v -7.37 h 9.79 V 220 h -14 v 25.6 h 15.37 V 242 h -11.21 z m -377.69,28.3 a 3.4,3.4 0 0 0 -1,0.73 3.2,3.2 0 0 0 -0.64,1 3,3 0 0 0 -0.23,1.12 3.15,3.15 0 0 0 0.74,1.94 21.31,21.31 0 0 0 2,2.21 8.57,8.57 0 0 0 2.62,-2 3.38,3.38 0 0 0 1,-2.17 2.65,2.65 0 0 0 -0.26,-1.11 3.83,3.83 0 0 0 -0.72,-1 3.78,3.78 0 0 0 -1.06,-0.73 2.93,2.93 0 0 0 -1.28,-0.29 2.47,2.47 0 0 0 -1.17,0.29 m 11.4,18.07 5,5 h -5.33 l -2.22,-2.22 a 13.54,13.54 0 0 1 -3.3,1.92 11.87,11.87 0 0 1 -4.46,0.78 9.28,9.28 0 0 1 -3.31,-0.57 8.44,8.44 0 0 1 -2.58,-1.51 7,7 0 0 1 -1.7,-2.21 6,6 0 0 1 -0.61,-2.68 6.92,6.92 0 0 1 1.28,-4.29 10,10 0 0 1 3.36,-2.77 11.74,11.74 0 0 1 -2.16,-2.79 6.68,6.68 0 0 1 -0.89,-3.24 6.08,6.08 0 0 1 0.59,-2.7 6.43,6.43 0 0 1 1.54,-2.05 7,7 0 0 1 4.64,-1.78 7.46,7.46 0 0 1 2.57,0.46 7.36,7.36 0 0 1 2.26,1.31 6.94,6.94 0 0 1 1.63,2.05 5.76,5.76 0 0 1 0.63,2.71 5.93,5.93 0 0 1 -0.41,2.17 7.17,7.17 0 0 1 -1.11,1.91 11.94,11.94 0 0 1 -1.59,1.59 11,11 0 0 1 -1.68,1.1 l 5.25,5.26 a 17.15,17.15 0 0 0 1.48,-2.52 22.65,22.65 0 0 0 1.11,-2.66 l 0.07,-0.22 2.65,2.69 v 0.09 a 20.2,20.2 0 0 1 -1,2.49 18.29,18.29 0 0 1 -1.65,2.72 M 55,282.37 A 10.06,10.06 0 0 0 57.29,281 l -6.18,-6.19 a 7.58,7.58 0 0 0 -2.45,1.79 3.83,3.83 0 0 0 -0.8,2.51 3.19,3.19 0 0 0 0.34,1.45 4.07,4.07 0 0 0 1,1.2 4.39,4.39 0 0 0 1.42,0.8 5,5 0 0 0 1.74,0.29 7,7 0 0 0 2.7,-0.52 m 27.24,-7.6 h 8.21 v -3.58 h -8.25 v -7.36 h 9.8 v -3.59 h -14 v 25.6 h 15.39 v -3.58 H 82.26 Z m 33.08,-2.4 v 2.93 c 0,0.94 0,1.85 0.07,2.74 l -1.1,-1.3 c -0.47,-0.54 -0.94,-1.09 -1.41,-1.61 -0.47,-0.52 -0.94,-1.05 -1.39,-1.57 -0.45,-0.52 -0.86,-1 -1.23,-1.37 L 99.39,260.24 h -2.86 v 25.6 h 4.18 V 270 c 0,-1 0,-2 -0.07,-3.06 0.82,1 1.7,2 2.66,3.11 0.96,1.11 2,2.31 3,3.34 l 11.88,13 h 1.36 v -26.15 h -4.18 z m 21.74,4 h 5.83 v 5.05 a 9.25,9.25 0 0 1 -5.22,1.25 12.26,12.26 0 0 1 -3.76,-0.59 9,9 0 0 1 -5.5,-4.81 9.84,9.84 0 0 1 -0.86,-4.26 9.65,9.65 0 0 1 0.88,-4.28 9.11,9.11 0 0 1 2.31,-3 9.74,9.74 0 0 1 3.22,-1.81 11.27,11.27 0 0 1 3.65,-0.61 13,13 0 0 1 3.79,0.54 12.27,12.27 0 0 1 3.16,1.46 l 0.18,0.11 0.78,-3.63 -0.08,-0.06 a 12,12 0 0 0 -3.52,-1.48 18.17,18.17 0 0 0 -4.74,-0.57 14.9,14.9 0 0 0 -4.86,0.85 13.78,13.78 0 0 0 -4.43,2.5 13.19,13.19 0 0 0 -3.26,4.15 12.79,12.79 0 0 0 -1.26,5.82 13,13 0 0 0 1.22,5.78 12.56,12.56 0 0 0 3.22,4.15 14.15,14.15 0 0 0 4.48,2.53 15.71,15.71 0 0 0 5.11,0.86 19.64,19.64 0 0 0 5.18,-0.64 11.66,11.66 0 0 0 4.16,-2.13 h 0.05 V 273 h -9.73 z m 14.88,9.51 h 4.18 v -25.6 H 152 Z m 28.41,-13.47 v 2.93 c 0,0.94 0,1.85 0.08,2.74 l -1.11,-1.3 c -0.46,-0.54 -0.93,-1.09 -1.41,-1.61 l -1.38,-1.57 c -0.45,-0.52 -0.86,-1 -1.24,-1.37 l -10.88,-11.95 h -2.87 v 25.6 h 4.18 V 270 c 0,-1 0,-2 -0.07,-3.06 0.83,1 1.71,2 2.67,3.11 0.96,1.11 2,2.31 3,3.34 l 11.88,13 h 1.36 v -26.15 h -4.22 z m 13.23,2.4 h 8.21 v -3.58 h -8.21 v -7.36 h 9.79 v -3.59 h -14 v 25.6 h 15.36 v -3.58 h -11.16 z m 18.45,0 h 8.21 v -3.58 h -8.21 v -7.36 h 9.79 v -3.59 h -14 v 25.6 h 15.37 v -3.58 h -11.17 z m 25.78,-0.72 8.71,11.79 h -4.84 l -8,-11.1 h -3.34 v 11.1 h -4.1 v -25.6 h 8.16 a 8.8,8.8 0 0 1 2.75,0.45 7.72,7.72 0 0 1 2.48,1.33 6.72,6.72 0 0 1 1.82,2.27 6.83,6.83 0 0 1 0.72,3.2 6.51,6.51 0 0 1 -1.33,4.23 7.86,7.86 0 0 1 -3,2.33 m -7.42,-2.86 h 3.39 a 6.09,6.09 0 0 0 1.59,-0.21 3.85,3.85 0 0 0 1.36,-0.67 3.43,3.43 0 0 0 0.93,-1.16 3.87,3.87 0 0 0 0.33,-1.66 3.72,3.72 0 0 0 -0.33,-1.64 3.25,3.25 0 0 0 -0.93,-1.14 4.33,4.33 0 0 0 -1.37,-0.7 5.59,5.59 0 0 0 -1.58,-0.23 h -3.39 z M 249,285.84 h 4.18 v -25.6 H 249 Z m 28.4,-13.47 v 2.93 c 0,0.94 0,1.85 0.07,2.74 -0.34,-0.41 -0.7,-0.84 -1.1,-1.3 -0.4,-0.46 -0.93,-1.09 -1.41,-1.61 l -1.38,-1.57 c -0.45,-0.52 -0.86,-1 -1.23,-1.37 l -10.89,-11.95 h -2.86 v 25.6 h 4.18 V 270 c 0,-1 0,-2 -0.07,-3.06 0.82,1 1.7,2 2.66,3.11 0.96,1.11 2,2.31 3,3.34 l 11.88,13 h 1.36 v -26.15 h -4.18 z m 21.75,4 h 5.83 v 5.05 a 9.25,9.25 0 0 1 -5.22,1.25 12.26,12.26 0 0 1 -3.76,-0.59 9.09,9.09 0 0 1 -5.51,-4.81 9.84,9.84 0 0 1 -0.85,-4.26 9.65,9.65 0 0 1 0.88,-4.28 9,9 0 0 1 2.31,-3 9.74,9.74 0 0 1 3.22,-1.81 11.23,11.23 0 0 1 3.65,-0.61 13,13 0 0 1 3.79,0.54 12.27,12.27 0 0 1 3.16,1.46 l 0.18,0.11 0.78,-3.63 -0.08,-0.06 a 12,12 0 0 0 -3.52,-1.48 18.17,18.17 0 0 0 -4.74,-0.57 14.9,14.9 0 0 0 -4.86,0.85 13.78,13.78 0 0 0 -4.43,2.5 13,13 0 0 0 -3.26,4.15 13.07,13.07 0 0 0 3.17,15.75 14.2,14.2 0 0 0 4.49,2.53 15.71,15.71 0 0 0 5.11,0.86 19.56,19.56 0 0 0 5.17,-0.64 v -0.14 0.14 a 11.5,11.5 0 0 0 4.16,-2.13 h 0.06 V 273 h -9.73 z"
         id="path8" />
    </g>
  </g>
</svg>
