<svg xmlns="http://www.w3.org/2000/svg" width="111.83" height="25.383" viewBox="0 0 111.83 25.383"><g id="Group_44" data-name="Group 44" transform="translate(-181.39 -169.53)"><g id="Group_46" data-name="Group 46" transform="translate(207.211 173.653)"><g id="Group_45" data-name="Group 45" transform="translate(0 0)"><g id="Group_44-2" data-name="Group 44"><path id="Path_34" data-name="Path 34" d="M294.14,194.016c0-2.948,0-3.494-.037-4.111-.04-.662-.2-.97-.837-1.107a3.931,3.931,0,0,0-.757-.058c-.212,0-.329-.04-.329-.175s.135-.175.427-.175c1.028,0,2.249.058,2.834.058.464,0,1.687-.058,2.384-.058.291,0,.426.04.426.175s-.117.175-.31.175a3.046,3.046,0,0,0-.562.058c-.524.1-.678.427-.718,1.107-.04.62-.04,1.163-.04,4.111v2.715c0,2.815.564,4,1.513,4.773a3.59,3.59,0,0,0,2.426.795,3.808,3.808,0,0,0,2.678-1.046c1.067-1.067,1.126-2.813,1.126-4.813v-2.424c0-2.948,0-3.494-.04-4.111-.037-.662-.193-.97-.834-1.107a3.673,3.673,0,0,0-.7-.058c-.214,0-.331-.04-.331-.175s.135-.175.408-.175c.991,0,2.212.058,2.233.058.233,0,1.457-.058,2.212-.058.27,0,.408.04.408.175s-.117.175-.35.175a3.046,3.046,0,0,0-.562.058c-.527.1-.681.427-.718,1.107-.04.62-.04,1.163-.04,4.111v2.077c0,2.156-.214,4.442-1.844,5.838a5.784,5.784,0,0,1-4.034,1.4,6.238,6.238,0,0,1-4.307-1.34c-.988-.893-1.727-2.326-1.727-5.139v-2.832Z" transform="translate(-292.18 -188.117)" fill="#054a76"></path><path id="Path_35" data-name="Path 35" d="M368.7,199.523c.037,1.513.291,2.018.678,2.153a3.081,3.081,0,0,0,1.009.133c.214,0,.329.04.329.156,0,.156-.175.193-.445.193-1.261,0-2.035-.058-2.405-.058-.175,0-1.088.058-2.1.058-.252,0-.427-.019-.427-.193,0-.117.117-.156.31-.156a3.5,3.5,0,0,0,.874-.1c.5-.154.58-.718.6-2.408l.172-11.425c0-.389.058-.662.252-.662.212,0,.389.254.72.6.233.254,3.181,3.356,6.013,6.169,1.319,1.319,3.936,4.114,4.267,4.424h.1l-.193-8.714c-.021-1.182-.193-1.552-.66-1.746a3.171,3.171,0,0,0-1.03-.117c-.231,0-.308-.058-.308-.175,0-.156.212-.175.5-.175,1.009,0,1.941.058,2.347.058.214,0,.951-.058,1.9-.058.252,0,.45.019.45.175q0,.175-.35.175a2.086,2.086,0,0,0-.58.058c-.543.154-.7.562-.72,1.648l-.214,12.245c0,.427-.077.6-.252.6-.212,0-.445-.212-.66-.426-1.221-1.165-3.706-3.706-5.724-5.705-2.114-2.1-4.267-4.463-4.617-4.831h-.058Z" transform="translate(-348.289 -187.22)" fill="#054a76"></path><path id="Path_36" data-name="Path 36" d="M448.308,194.024c0-2.948,0-3.494-.04-4.111-.04-.662-.233-.991-.66-1.088a2.743,2.743,0,0,0-.7-.077c-.2,0-.312-.04-.312-.193,0-.114.156-.154.468-.154.734,0,1.96.058,2.519.058.485,0,1.631-.058,2.368-.058.254,0,.408.04.408.154,0,.156-.114.193-.31.193a3.416,3.416,0,0,0-.58.058c-.527.1-.683.426-.72,1.107-.037.62-.037,1.163-.037,4.111v3.414c0,1.883,0,3.412.077,4.249.058.524.193.874.776.949a8.524,8.524,0,0,0,.988.077c.214,0,.312.058.312.156,0,.135-.156.193-.368.193-1.28,0-2.5-.058-3.027-.058-.447,0-1.671.058-2.445.058-.252,0-.389-.058-.389-.193,0-.1.077-.156.31-.156a3.255,3.255,0,0,0,.7-.077c.387-.077.5-.406.564-.97.1-.816.1-2.347.1-4.23v-3.412Z" transform="translate(-410.611 -188.125)" fill="#054a76"></path><path id="Path_37" data-name="Path 37" d="M484.553,188.581l-2.89.077c-1.128.037-1.594.135-1.883.564a2.364,2.364,0,0,0-.331.678c-.04.156-.1.231-.214.231-.135,0-.175-.1-.175-.31,0-.31.371-2.074.408-2.23.058-.254.119-.371.233-.371a4.4,4.4,0,0,0,.834.233c.564.058,1.3.1,1.941.1h7.684a9.145,9.145,0,0,0,1.338-.1,4.446,4.446,0,0,1,.524-.1c.135,0,.156.117.156.406,0,.406-.056,1.748-.056,2.249-.019.193-.058.31-.177.31-.154,0-.193-.1-.212-.387l-.019-.212c-.04-.506-.564-1.046-2.291-1.088l-2.447-.056v7.954c0,1.785,0,3.319.1,4.153.061.543.175.97.757,1.046a8.484,8.484,0,0,0,.988.077c.214,0,.312.058.312.156,0,.135-.156.193-.368.193-1.282,0-2.505-.058-3.046-.058-.445,0-1.666.058-2.445.058-.252,0-.389-.058-.389-.193,0-.1.077-.156.31-.156a3.255,3.255,0,0,0,.7-.077c.389-.077.5-.5.562-1.065.1-.816.1-2.347.1-4.132v-7.954Z" transform="translate(-435.505 -187.22)" fill="#054a76"></path><path id="Path_38" data-name="Path 38" d="M531.88,197.214c-.1,0-.135.037-.175.154l-1.046,2.659a3.705,3.705,0,0,0-.291,1.182c0,.35.175.6.776.6h.291c.235,0,.291.04.291.156,0,.156-.114.193-.331.193-.622,0-1.454-.058-2.058-.058-.212,0-1.279.058-2.289.058-.252,0-.368-.037-.368-.193,0-.117.077-.156.231-.156a5.386,5.386,0,0,0,.6-.04c.895-.114,1.266-.774,1.655-1.743L534.031,188c.233-.562.35-.776.543-.776.175,0,.294.175.485.622.468,1.067,3.573,8.828,4.813,11.777.736,1.748,1.3,2.018,1.706,2.114a4.25,4.25,0,0,0,.813.077c.159,0,.252.019.252.156,0,.156-.172.193-.888.193s-2.119,0-3.671-.037c-.35-.019-.58-.019-.58-.156,0-.117.077-.156.273-.175a.317.317,0,0,0,.175-.445l-1.555-4a.184.184,0,0,0-.193-.137H531.88Zm3.96-.97c.1,0,.117-.058.1-.117l-1.748-4.771c-.019-.079-.035-.175-.1-.175s-.1.1-.114.175l-1.783,4.754c-.021.077,0,.135.077.135h3.566Z" transform="translate(-472.027 -187.22)" fill="#054a76"></path><path id="Path_39" data-name="Path 39" d="M597.5,194.016c0-2.948,0-3.494-.04-4.111-.04-.662-.193-.97-.834-1.107a3.906,3.906,0,0,0-.755-.058c-.214,0-.331-.04-.331-.175s.135-.175.429-.175c1.028,0,2.251.058,2.657.058.66,0,2.135-.058,2.736-.058a6.2,6.2,0,0,1,3.57.834,3.356,3.356,0,0,1,1.319,2.657c0,1.436-.6,2.755-2.564,4.347,1.729,2.172,3.067,3.9,4.211,5.1a3.86,3.86,0,0,0,2.174,1.319,2.98,2.98,0,0,0,.543.058c.154,0,.231.058.231.156,0,.156-.135.193-.368.193h-1.841a3.944,3.944,0,0,1-2.077-.368,9.327,9.327,0,0,1-2.657-2.85c-.776-1.067-1.671-2.389-1.92-2.678a.4.4,0,0,0-.35-.138l-1.687-.037c-.1,0-.156.037-.156.156v.273c0,1.8,0,3.337.1,4.153.058.562.175.991.757,1.065a9.275,9.275,0,0,0,.951.077c.154,0,.231.058.231.156,0,.135-.135.193-.385.193-1.128,0-2.561-.058-2.853-.058-.368,0-1.592.058-2.368.058-.252,0-.389-.058-.389-.193,0-.1.079-.156.31-.156a3.3,3.3,0,0,0,.7-.077c.387-.077.485-.5.562-1.065.1-.816.1-2.347.1-4.132v-3.421Zm2.286,1.534c0,.214.04.291.175.35a5.07,5.07,0,0,0,1.478.2,1.953,1.953,0,0,0,1.375-.329,3.411,3.411,0,0,0,1.147-2.911c0-2.755-1.825-3.55-2.969-3.55a4.258,4.258,0,0,0-1.028.077c-.135.04-.175.117-.175.273v5.894Z" transform="translate(-524.838 -188.117)" fill="#054a76"></path></g></g></g><g id="Group_47" data-name="Group 47" transform="translate(181.39 169.53)"><path id="Path_40" data-name="Path 40" d="M246.26,211.758h0a3.746,3.746,0,0,1-3,1.51,3.809,3.809,0,0,0-3.766,3.536c-.007.072-.007.145-.009.217,0,.033,0,.063,0,.1v7.691a3.815,3.815,0,0,1,3.778-3.848c.084,0,.163,0,.245-.012a3.816,3.816,0,0,0,3.533-3.832v-5.083a.442.442,0,0,0-.438-.443.418.418,0,0,0-.338.168" transform="translate(-225.941 -201.787)" fill="#9b9da1"></path><path id="Path_41" data-name="Path 41" d="M181.39,183.44l0,8.579a6.478,6.478,0,0,0,6.05,6.472c.14.009.277.023.42.023a6.479,6.479,0,0,1,6.47,6.491l0-12.975a.1.1,0,0,1,0-.012c0-.054-.007-.1-.007-.161,0-.121-.009-.242-.021-.364a6.475,6.475,0,0,0-6.442-5.971,6.441,6.441,0,0,1-5.134-2.552h0a.745.745,0,0,0-.58-.282.755.755,0,0,0-.753.75" transform="translate(-181.39 -179.623)" fill="#bbbcbe"></path><path id="Path_42" data-name="Path 42" d="M243.749,170.22h0a2.345,2.345,0,0,1-1.895.984,2.432,2.432,0,0,0-2.375,2.3.922.922,0,0,0-.007.14.526.526,0,0,0,0,.061v5a2.449,2.449,0,0,1,2.384-2.5c.051,0,.1,0,.158,0a2.456,2.456,0,0,0,2.228-2.5v-3.3a.284.284,0,0,0-.277-.289.272.272,0,0,0-.214.11" transform="translate(-225.934 -169.975)" fill="#aaacaf"></path><path id="Path_43" data-name="Path 43" d="M247.567,189.042l0,0a4.415,4.415,0,0,1-3.58,1.874A4.611,4.611,0,0,0,239.5,195.3c-.009.089-.014.177-.016.268,0,.04,0,.077,0,.117v9.535a4.644,4.644,0,0,1,4.505-4.766c.1,0,.2-.007.3-.014a4.662,4.662,0,0,0,4.216-4.752v-6.3a.538.538,0,0,0-.522-.55.508.508,0,0,0-.408.2" transform="translate(-225.941 -184.339)" fill="#006292"></path><path id="Path_44" data-name="Path 44" d="M213.35,207.117v3.64a2.754,2.754,0,0,0,2.568,2.75c.058,0,.119.009.177.009a2.756,2.756,0,0,1,2.748,2.755l0-5.507a.008.008,0,0,0,0,0c0-.023,0-.044,0-.068,0-.051,0-.1-.007-.156A2.751,2.751,0,0,0,216.1,208a2.741,2.741,0,0,1-2.179-1.084h0a.318.318,0,0,0-.566.2" transform="translate(-205.901 -198.114)" fill="#919396"></path><path id="Path_45" data-name="Path 45" d="M196.53,170.073v6.241a4.717,4.717,0,0,0,4.4,4.71c.1.007.2.014.308.014a4.72,4.72,0,0,1,4.706,4.724l0-9.439a.053.053,0,0,0,0-.009c0-.037-.007-.077-.007-.117a2.54,2.54,0,0,0-.014-.266,4.71,4.71,0,0,0-4.685-4.344,4.687,4.687,0,0,1-3.736-1.857l0,0a.547.547,0,0,0-.972.34" transform="translate(-193.001 -169.53)" fill="#f69227"></path></g></g></svg>